{"title":"Planet 51 (2009) R5 DVDRip XviD-MAX","uid":5212241,"size":945789050,"categoryP":"video","categoryS":"movies","magnet":"?xt=urn:btih:0bafa05a410c15da4b936755daa40910197fb711&amp;dn=Planet+51+%282009%29+R5+DVDRip+XviD-MAX&amp;tr=udp%3A%2F%2Ftracker.openbittorrent.com%3A80&amp;tr=udp%3A%2F%2Fopen.demonii.com%3A1337&amp;tr=udp%3A%2F%2Ftracker.coppersurfer.tk%3A6969&amp;tr=udp%3A%2F%2Fexodus.desync.com%3A6969","seeders":12,"leechers":1,"uploader":"extremezone","files":-1,"time":1260644938,"description":"Planet 51 (2009) R5 DVDRip XviD-MAX\n\nFormat                           : AVI\nFormat/Info                      : Audio Video Interleave\nFile size                        : 902 MiB\nDuration                         : 1h 26mn\nOverall bit rate                 : 1 459 Kbps\nWriting application              : VirtualDubMod 1.5.10.2 (build 2542/release)\nWriting library                  : VirtualDubMod build 2542/release\nOriginal source form             : MAX TORRENTZ\nCopyright                        : SIGISMUNT\n\nVideo\nFormat                           : xvid\nCodec ID                         : xvid\nDuration                         : 1h 26mn\nBit rate                         : 1 328 Kbps\nWidth                            : 720 pixels\nHeight                           : 320 pixels\nDisplay aspect ratio             : 2.25:1\nFrame rate                       : 25.000 fps\nResolution                       : 24 bits\nBits/(Pixel*Frame)               : 0.231\nStream size                      : 821 MiB (91%)\n\nAudio\nID                               : 1\nFormat                           : MPEG Audio\nFormat version                   : Version 1\nFormat profile                   : Layer 3\nCodec ID                         : 55\nCodec ID/Hint                    : MP3\nDuration                         : 1h 20mn\nBit rate mode                    : Constant\nBit rate                         : 128 Kbps\nChannel(s)                       : 2 channels\nSampling rate                    : 44.1 KHz\nResolution                       : 16 bits\nStream size                      : 73.8 MiB (8%)\nAlignment                        : Aligned on interleaves\nInterleave, duration             : 28 ms (0.70 video frame)\nInterleave, preload duration     : 26 ms &lt;a href=&quot;\nhttp://www.imdb.com/title/tt0762125/&quot; rel=&quot;nofollow&quot; target=&quot;_NEW&quot;&gt;\nhttp://www.imdb.com/title/tt0762125/&lt;/a&gt;\n\nScreens: &lt;a href=&quot;\nhttp://www.postimg.com/image/9000/8791.jpg&quot; rel=&quot;nofollow&quot; target=&quot;_NEW&quot;&gt;\nhttp://www.postimg.com/image/9000/8791.jpg&lt;/a&gt; &lt;a href=&quot;\nhttp://www.postimg.com/image/9000/8792.jpg&quot; rel=&quot;nofollow&quot; target=&quot;_NEW&quot;&gt;\nhttp://www.postimg.com/image/9000/8792.jpg&lt;/a&gt; &lt;a href=&quot;\nhttp://www.postimg.com/image/9000/8793.jpg&quot; rel=&quot;nofollow&quot; target=&quot;_NEW&quot;&gt;\nhttp://www.postimg.com/image/9000/8793.jpg&lt;/a&gt; &lt;a href=&quot;\nhttp://www.postimg.com/image/9000/8794.jpg&quot; rel=&quot;nofollow&quot; target=&quot;_NEW&quot;&gt;\nhttp://www.postimg.com/image/9000/8794.jpg&lt;/a&gt;\n\nScreenCaps: &lt;a href=&quot;\nhttp://www.postimg.com/image/9000/8795.jpg&quot; rel=&quot;nofollow&quot; target=&quot;_NEW&quot;&gt;\nhttp://www.postimg.com/image/9000/8795.jpg&lt;/a&gt;\n\nPlanet 51 (2009) R5 DVDRip XviD-MAX Torrent Free Download &lt;a href=&quot;\nhttp://thepiratebay.se/user/extremezone/0/7&quot; rel=&quot;nofollow&quot; target=&quot;_NEW&quot;&gt;\nhttp://thepiratebay.se/user/extremezone/0/7&lt;/a&gt;\n","torrent":{"xt":"urn:btih:0bafa05a410c15da4b936755daa40910197fb711","amp;dn":"Planet+51+%282009%29+R5+DVDRip+XviD-MAX","amp;tr":["udp%3A%2F%2Ftracker.openbittorrent.com%3A80","udp%3A%2F%2Fopen.demonii.com%3A1337","udp%3A%2F%2Ftracker.coppersurfer.tk%3A6969","udp%3A%2F%2Fexodus.desync.com%3A6969"],"infoHash":"0bafa05a410c15da4b936755daa40910197fb711","infoHashBuffer":{"type":"Buffer","data":[11,175,160,90,65,12,21,218,75,147,103,85,218,164,9,16,25,127,183,17]},"announce":[],"urlList":[]}}